<svg width="377" height="400" viewBox="0 0 377 400" fill="none" xmlns="http://www.w3.org/2000/svg">
<rect width="377" height="400" fill="white"/>
<path fill-rule="evenodd" clip-rule="evenodd" d="M289 196.985L289.001 196.985L295.017 197.825C295.82 192.144 298.633 186.933 302.951 183.125L302.979 183.1C307.313 179.29 312.872 177.142 318.657 177.041L318.659 177.041C324.444 176.941 330.076 178.895 334.541 182.552L334.571 182.576C339.02 186.232 342.014 191.342 343.017 196.993L349 195.944L349 195.943L348.998 195.931C348.397 192.556 347.228 189.336 345.564 186.394C343.741 183.171 341.322 180.283 338.406 177.894L338.377 177.87C332.801 173.314 325.773 170.88 318.554 171.005L318.553 171.005C311.333 171.13 304.395 173.806 298.982 178.553L298.953 178.578C296.123 181.066 293.808 184.036 292.099 187.321C290.538 190.319 289.483 193.58 289.001 196.974L289 196.985ZM289.001 204.026C289.483 207.42 290.538 210.681 292.099 213.679C293.808 216.964 296.123 219.934 298.953 222.422L298.982 222.447C304.395 227.194 311.333 229.87 318.553 229.995L318.554 229.995C325.773 230.12 332.801 227.686 338.377 223.13L338.406 223.106C341.322 220.717 343.741 217.829 345.564 214.606C347.228 211.664 348.397 208.444 348.998 205.069L349 205.057L349 205.056L343.017 204.007C342.014 209.658 339.02 214.768 334.571 218.424L334.541 218.448C330.076 222.105 324.445 224.059 318.659 223.959L318.657 223.959C312.872 223.858 307.313 221.71 302.979 217.9L302.951 217.875C298.633 214.067 295.82 208.856 295.017 203.175L295.016 203.175L289 204.015L289.001 204.026ZM319.428 215.593C328.008 215.593 334.963 208.682 334.963 200.157C334.963 191.632 328.008 184.721 319.428 184.721C310.849 184.721 303.894 191.632 303.894 200.157C303.894 208.682 310.849 215.593 319.428 215.593Z" fill="black"/>
<path fill-rule="evenodd" clip-rule="evenodd" d="M168 279.985L168.001 279.985L174.017 280.825C174.82 275.144 177.633 269.933 181.951 266.125L181.979 266.1C186.313 262.29 191.872 260.142 197.657 260.041L197.659 260.041C203.444 259.941 209.076 261.895 213.541 265.552L213.571 265.576C218.02 269.232 221.014 274.342 222.017 279.993L228 278.944L228 278.943L227.998 278.931C227.397 275.556 226.228 272.336 224.564 269.394C222.741 266.171 220.322 263.283 217.406 260.894L217.377 260.87C211.801 256.314 204.773 253.88 197.554 254.005L197.553 254.005C190.333 254.13 183.395 256.806 177.982 261.553L177.953 261.578C175.123 264.066 172.808 267.036 171.099 270.321C169.538 273.319 168.483 276.58 168.001 279.974L168 279.985ZM168.001 287.026C168.483 290.42 169.538 293.681 171.099 296.679C172.808 299.964 175.123 302.934 177.953 305.422L177.982 305.447C183.395 310.194 190.333 312.87 197.553 312.995L197.554 312.995C204.773 313.12 211.801 310.686 217.377 306.13L217.406 306.106C220.322 303.717 222.741 300.829 224.564 297.606C226.228 294.664 227.397 291.444 227.998 288.069L228 288.057L228 288.056L222.017 287.007C221.014 292.658 218.02 297.768 213.571 301.424L213.541 301.448C209.076 305.105 203.445 307.059 197.659 306.959L197.657 306.959C191.872 306.858 186.313 304.71 181.979 300.9L181.951 300.875C177.633 297.067 174.82 291.856 174.017 286.175L174.016 286.175L168 287.015L168.001 287.026ZM198.428 298.593C207.008 298.593 213.963 291.682 213.963 283.157C213.963 274.632 207.008 267.721 198.428 267.721C189.849 267.721 182.894 274.632 182.894 283.157C182.894 291.682 189.849 298.593 198.428 298.593Z" fill="black"/>
<path fill-rule="evenodd" clip-rule="evenodd" d="M289 330.985L289.001 330.985L295.017 331.825C295.82 326.144 298.633 320.933 302.951 317.125L302.979 317.1C307.313 313.29 312.872 311.142 318.657 311.041L318.659 311.041C324.444 310.941 330.076 312.895 334.541 316.552L334.571 316.576C339.02 320.232 342.014 325.342 343.017 330.993L349 329.944L349 329.943L348.998 329.931C348.397 326.556 347.228 323.336 345.564 320.394C343.741 317.171 341.322 314.283 338.406 311.894L338.377 311.87C332.801 307.314 325.773 304.88 318.554 305.005L318.553 305.005C311.333 305.13 304.395 307.806 298.982 312.553L298.953 312.578C296.123 315.066 293.808 318.036 292.099 321.321C290.538 324.319 289.483 327.58 289.001 330.974L289 330.985ZM289.001 338.026C289.483 341.42 290.538 344.681 292.099 347.679C293.808 350.964 296.123 353.934 298.953 356.422L298.982 356.447C304.395 361.194 311.333 363.87 318.553 363.995L318.554 363.995C325.773 364.12 332.801 361.686 338.377 357.13L338.406 357.106C341.322 354.717 343.741 351.829 345.564 348.606C347.228 345.664 348.397 342.444 348.998 339.069L349 339.057L349 339.056L343.017 338.007C342.014 343.658 339.02 348.768 334.571 352.424L334.541 352.448C330.076 356.105 324.445 358.059 318.659 357.959L318.657 357.959C312.872 357.858 307.313 355.71 302.979 351.9L302.951 351.875C298.633 348.067 295.82 342.856 295.017 337.175L295.016 337.175L289 338.015L289.001 338.026ZM319.428 349.593C328.008 349.593 334.963 342.682 334.963 334.157C334.963 325.632 328.008 318.721 319.428 318.721C310.849 318.721 303.894 325.632 303.894 334.157C303.894 342.682 310.849 349.593 319.428 349.593Z" fill="black"/>
<path fill-rule="evenodd" clip-rule="evenodd" d="M54 334.985L54.001 334.985L60.0166 335.825C60.8201 330.144 63.633 324.933 67.9507 321.125L67.9794 321.1C72.3129 317.29 77.8722 315.142 83.6575 315.041L83.6588 315.041C89.4445 314.941 95.0764 316.895 99.5415 320.552L99.5707 320.576C104.02 324.232 107.014 329.342 108.017 334.993L114 333.944L114 333.943L113.998 333.931C113.397 330.556 112.228 327.336 110.564 324.394C108.741 321.171 106.322 318.283 103.406 315.894L103.377 315.87C97.8005 311.314 90.7731 308.88 83.5541 309.005L83.5528 309.005C76.3334 309.13 69.3954 311.806 63.9822 316.553L63.9535 316.578C61.123 319.066 58.8079 322.036 57.0987 325.321C55.5383 328.319 54.4829 331.58 54.0015 334.974L54 334.985ZM54.0015 342.026C54.4829 345.42 55.5383 348.681 57.0987 351.679C58.8079 354.964 61.123 357.934 63.9535 360.422L63.9822 360.447C69.3954 365.194 76.3334 367.87 83.5528 367.995L83.5541 367.995C90.7731 368.12 97.8005 365.686 103.377 361.13L103.406 361.106C106.322 358.717 108.741 355.829 110.564 352.606C112.228 349.664 113.397 346.444 113.998 343.069L114 343.057L114 343.056L108.017 342.007C107.014 347.658 104.02 352.768 99.5707 356.424L99.5415 356.448C95.0764 360.105 89.4445 362.059 83.6588 361.959L83.6575 361.959C77.8722 361.858 72.3129 359.71 67.9794 355.9L67.9507 355.875C63.633 352.067 60.8201 346.856 60.0166 341.175L60.0155 341.175L54 342.015L54.0015 342.026ZM84.4281 353.593C93.0076 353.593 99.9626 346.682 99.9626 338.157C99.9626 329.632 93.0076 322.721 84.4281 322.721C75.8487 322.721 68.8936 329.632 68.8936 338.157C68.8936 346.682 75.8487 353.593 84.4281 353.593Z" fill="black"/>
<path fill-rule="evenodd" clip-rule="evenodd" d="M198 143.985L198.001 143.985L204.017 144.825C204.82 139.144 207.633 133.933 211.951 130.125L211.979 130.1C216.313 126.29 221.872 124.142 227.657 124.041L227.659 124.041C233.444 123.941 239.076 125.895 243.541 129.552L243.571 129.576C248.02 133.232 251.014 138.342 252.017 143.993L258 142.944L258 142.943L257.998 142.931C257.397 139.556 256.228 136.336 254.564 133.394C252.741 130.171 250.322 127.283 247.406 124.894L247.377 124.87C241.801 120.314 234.773 117.88 227.554 118.005L227.553 118.005C220.333 118.13 213.395 120.806 207.982 125.553L207.953 125.578C205.123 128.066 202.808 131.036 201.099 134.321C199.538 137.319 198.483 140.58 198.001 143.974L198 143.985ZM198.001 151.026C198.483 154.42 199.538 157.681 201.099 160.679C202.808 163.964 205.123 166.934 207.953 169.422L207.982 169.447C213.395 174.194 220.333 176.87 227.553 176.995L227.554 176.995C234.773 177.12 241.801 174.686 247.377 170.13L247.406 170.106C250.322 167.717 252.741 164.829 254.564 161.606C256.228 158.664 257.397 155.444 257.998 152.069L258 152.057L258 152.056L252.017 151.007C251.014 156.658 248.02 161.768 243.571 165.424L243.541 165.448C239.076 169.105 233.445 171.059 227.659 170.959L227.657 170.959C221.872 170.858 216.313 168.71 211.979 164.9L211.951 164.875C207.633 161.067 204.82 155.856 204.017 150.175L204.016 150.175L198 151.015L198.001 151.026ZM228.428 162.593C237.008 162.593 243.963 155.682 243.963 147.157C243.963 138.632 237.008 131.721 228.428 131.721C219.849 131.721 212.894 138.632 212.894 147.157C212.894 155.682 219.849 162.593 228.428 162.593Z" fill="black"/>
<path fill-rule="evenodd" clip-rule="evenodd" d="M64 178.985L64.001 178.985L70.0166 179.825C70.8201 174.144 73.633 168.933 77.9507 165.125L77.9794 165.1C82.3129 161.29 87.8722 159.142 93.6575 159.041L93.6588 159.041C99.4445 158.941 105.076 160.895 109.541 164.552L109.571 164.576C114.02 168.232 117.014 173.342 118.017 178.993L124 177.944L124 177.943L123.998 177.931C123.397 174.556 122.228 171.336 120.564 168.394C118.741 165.171 116.322 162.283 113.406 159.894L113.377 159.87C107.801 155.314 100.773 152.88 93.5541 153.005L93.5528 153.005C86.3334 153.13 79.3954 155.806 73.9822 160.553L73.9535 160.578C71.123 163.066 68.8079 166.036 67.0987 169.321C65.5383 172.319 64.4829 175.58 64.0015 178.974L64 178.985ZM64.0015 186.026C64.4829 189.42 65.5383 192.681 67.0987 195.679C68.8079 198.964 71.123 201.934 73.9535 204.422L73.9822 204.447C79.3954 209.194 86.3334 211.87 93.5528 211.995L93.5541 211.995C100.773 212.12 107.801 209.686 113.377 205.13L113.406 205.106C116.322 202.717 118.741 199.829 120.564 196.606C122.228 193.664 123.397 190.444 123.998 187.069L124 187.057L124 187.056L118.017 186.007C117.014 191.658 114.02 196.768 109.571 200.424L109.541 200.448C105.076 204.105 99.4445 206.059 93.6588 205.959L93.6575 205.959C87.8722 205.858 82.3129 203.71 77.9794 199.9L77.9507 199.875C73.633 196.067 70.8201 190.856 70.0166 185.175L70.0155 185.175L64 186.015L64.0015 186.026ZM94.4281 197.593C103.008 197.593 109.963 190.682 109.963 182.157C109.963 173.632 103.008 166.721 94.4281 166.721C85.8487 166.721 78.8936 173.632 78.8936 182.157C78.8936 190.682 85.8487 197.593 94.4281 197.593Z" fill="black"/>
<path fill-rule="evenodd" clip-rule="evenodd" d="M279 47.985L279.001 47.9851L285.017 48.8252C285.82 43.1438 288.633 37.9327 292.951 34.1249L292.979 34.0996C297.313 30.2899 302.872 28.1416 308.657 28.0409L308.659 28.0409C314.444 27.9405 320.076 29.8948 324.541 33.5522L324.571 33.5762C329.02 37.232 332.014 42.3424 333.017 47.9926L339 46.9443L339 46.9434L338.998 46.9313C338.397 43.5563 337.228 40.3356 335.564 37.394C333.741 34.1707 331.322 31.2826 328.406 28.8938L328.377 28.8698C322.801 24.3138 315.773 21.8797 308.554 22.0046L308.553 22.0046C301.333 22.1298 294.395 24.806 288.982 29.5528L288.953 29.578C286.123 32.0664 283.808 35.0364 282.099 38.3207C280.538 41.3191 279.483 44.5795 279.001 47.9744L279 47.985ZM279.001 55.0256C279.483 58.4205 280.538 61.6809 282.099 64.6793C283.808 67.9636 286.123 70.9336 288.953 73.422L288.982 73.4472C294.395 78.1939 301.333 80.8702 308.553 80.9954L308.554 80.9954C315.773 81.1203 322.801 78.6862 328.377 74.1302L328.406 74.1062C331.322 71.7174 333.741 68.8293 335.564 65.606C337.228 62.6644 338.397 59.4437 338.998 56.0687L339 56.0566L339 56.0557L333.017 55.0073C332.014 60.6576 329.02 65.768 324.571 69.4238L324.541 69.4478C320.076 73.1052 314.445 75.0595 308.659 74.9591L308.657 74.9591C302.872 74.8584 297.313 72.7101 292.979 68.9004L292.951 68.8751C288.633 65.0673 285.82 59.8562 285.017 54.1748L285.016 54.175L279 55.015L279.001 55.0256ZM309.428 66.593C318.008 66.593 324.963 59.6821 324.963 51.157C324.963 42.6319 318.008 35.7209 309.428 35.7209C300.849 35.7209 293.894 42.6319 293.894 51.157C293.894 59.6821 300.849 66.593 309.428 66.593Z" fill="black"/>
<path fill-rule="evenodd" clip-rule="evenodd" d="M119 60.985L119.001 60.9851L125.017 61.8252C125.82 56.1438 128.633 50.9327 132.951 47.1249L132.979 47.0996C137.313 43.2899 142.872 41.1416 148.657 41.0409L148.659 41.0409C154.444 40.9405 160.076 42.8948 164.541 46.5522L164.571 46.5762C169.02 50.232 172.014 55.3424 173.017 60.9926L179 59.9443L179 59.9434L178.998 59.9313C178.397 56.5563 177.228 53.3356 175.564 50.394C173.741 47.1707 171.322 44.2826 168.406 41.8938L168.377 41.8698C162.801 37.3138 155.773 34.8797 148.554 35.0046L148.553 35.0046C141.333 35.1298 134.395 37.806 128.982 42.5528L128.953 42.578C126.123 45.0664 123.808 48.0364 122.099 51.3207C120.538 54.3191 119.483 57.5795 119.001 60.9744L119 60.985ZM119.001 68.0256C119.483 71.4205 120.538 74.6809 122.099 77.6793C123.808 80.9636 126.123 83.9336 128.953 86.422L128.982 86.4472C134.395 91.1939 141.333 93.8702 148.553 93.9954L148.554 93.9954C155.773 94.1203 162.801 91.6862 168.377 87.1302L168.406 87.1062C171.322 84.7174 173.741 81.8293 175.564 78.606C177.228 75.6644 178.397 72.4437 178.998 69.0687L179 69.0566L179 69.0557L173.017 68.0073C172.014 73.6576 169.02 78.768 164.571 82.4238L164.541 82.4478C160.076 86.1052 154.445 88.0595 148.659 87.9591L148.657 87.9591C142.872 87.8584 137.313 85.7101 132.979 81.9004L132.951 81.8751C128.633 78.0673 125.82 72.8562 125.017 67.1748L125.016 67.175L119 68.015L119.001 68.0256ZM149.428 79.593C158.008 79.593 164.963 72.6821 164.963 64.157C164.963 55.6319 158.008 48.7209 149.428 48.7209C140.849 48.7209 133.894 55.6319 133.894 64.157C133.894 72.6821 140.849 79.593 149.428 79.593Z" fill="black"/>
</svg>
